<?xml version="1.0" standalone="no"?>
<!DOCTYPE svg PUBLIC "-//W3C//DTD SVG 20010904//EN"
 "http://www.w3.org/TR/2001/REC-SVG-20010904/DTD/svg10.dtd">
<svg version="1.0" xmlns="http://www.w3.org/2000/svg"
 width="218.000000pt" height="218.000000pt" viewBox="0 0 218.000000 218.000000"
 preserveAspectRatio="xMidYMid meet">

<g transform="translate(0.000000,218.000000) scale(0.100000,-0.100000)"
fill="#990000" stroke="none">
<path d="M493 2070 c-126 -23 -238 -86 -340 -192 -182 -191 -200 -436 -51
-732 97 -194 204 -333 443 -572 174 -175 382 -357 492 -430 l53 -35 88 67
c447 347 765 696 907 996 150 316 100 595 -139 774 -235 177 -494 174 -778
-11 l-81 -53 -68 45 c-187 120 -371 170 -526 143z m165 -150 c35 -6 93 -22
129 -37 73 -29 225 -126 262 -167 14 -14 29 -26 34 -26 5 0 40 24 76 53 177
142 351 205 497 178 133 -25 273 -129 330 -246 27 -55 29 -68 29 -170 0 -95
-4 -120 -28 -184 -71 -195 -211 -388 -466 -641 -160 -159 -413 -380 -435 -380
-25 0 -382 315 -517 456 -275 288 -431 582 -417 784 14 196 211 377 423 389
11 0 48 -4 83 -9z"/>
</g>
</svg>
