<?xml version="1.0" standalone="no"?>
<!DOCTYPE svg PUBLIC "-//W3C//DTD SVG 20010904//EN"
 "http://www.w3.org/TR/2001/REC-SVG-20010904/DTD/svg10.dtd">
<svg version="1.0" xmlns="http://www.w3.org/2000/svg"
 width="320.000000pt" height="320.000000pt" viewBox="0 0 320.000000 320.000000"
 preserveAspectRatio="xMidYMid meet">

<g transform="translate(0.000000,320.000000) scale(0.100000,-0.100000)"
fill="#000000" stroke="none">
<path d="M1825 3066 c-99 -25 -224 -91 -207 -108 7 -7 33 -5 81 5 103 24 191
71 191 104 0 15 0 15 -65 -1z"/>
<path d="M1891 2986 c-2 -35 -49 -101 -98 -138 -28 -21 -112 -70 -189 -109
-206 -106 -255 -141 -345 -243 -96 -110 -116 -149 -135 -263 -9 -49 -34 -148
-56 -220 -40 -129 -43 -158 -15 -134 25 20 99 221 113 305 8 45 16 90 18 101
4 14 28 30 73 50 37 16 104 49 148 74 44 25 107 52 139 61 90 25 87 44 -5 38
-70 -4 -81 -9 -192 -73 -64 -37 -120 -66 -122 -63 -8 7 48 80 97 128 56 55
105 88 218 150 l93 50 -6 -102 c-4 -57 -12 -178 -18 -270 l-12 -168 -33 -17
c-17 -10 -56 -34 -86 -54 -29 -20 -90 -58 -136 -84 -89 -53 -181 -129 -170
-140 15 -15 83 20 205 107 70 50 143 104 161 119 18 16 38 29 43 29 8 0 9 -36
5 -117 -7 -122 3 -174 22 -122 6 14 22 196 36 405 15 208 29 393 31 410 4 22
17 39 48 59 39 27 49 29 144 30 56 1 106 5 110 9 17 16 -32 36 -89 36 -62 0
-69 7 -38 35 24 22 53 97 47 121 -4 18 -5 18 -6 0z"/>
<path d="M1520 2936 c-156 -66 -366 -192 -465 -281 -33 -30 -25 -26 55 23 52
32 160 94 240 137 137 73 230 130 230 140 0 7 3 7 -60 -19z"/>
<path d="M2010 2708 c0 -99 47 -787 56 -824 4 -14 11 -23 18 -21 7 3 10 34 9
93 -1 109 -51 780 -59 812 -13 47 -24 19 -24 -60z"/>
<path d="M910 2544 c-16 -25 -41 -80 -56 -122 -35 -99 -147 -344 -185 -403
-16 -25 -69 -78 -118 -118 -85 -69 -104 -91 -189 -226 -35 -57 -66 -125 -58
-132 2 -2 7 5 11 17 12 38 93 131 234 270 145 143 132 123 287 405 18 33 45
103 60 155 14 52 37 117 50 143 28 57 28 57 9 57 -9 0 -29 -21 -45 -46z"/>
<path d="M2160 2424 c70 -26 142 -35 150 -19 6 12 -119 43 -175 44 -40 0 -39
0 25 -25z"/>
<path d="M2333 2356 c29 -27 123 -60 198 -70 49 -7 81 6 63 24 -23 23 -151 62
-219 67 l-70 4 28 -25z"/>
<path d="M2526 2252 c-29 -33 -87 -42 -267 -42 -131 -1 -169 -3 -155 -12 32
-18 314 -33 365 -19 46 13 91 50 91 76 0 20 -13 19 -34 -3z"/>
<path d="M2110 2111 c25 -13 150 -44 156 -38 11 11 -7 26 -44 37 -44 12 -134
13 -112 1z"/>
<path d="M2302 2039 c2 -8 38 -31 79 -52 111 -57 258 -66 174 -11 -69 45 -263
93 -253 63z"/>
<path d="M2525 1910 c-30 -49 -202 -74 -328 -48 -84 18 -75 7 18 -22 86 -27
201 -29 264 -6 57 21 71 33 71 62 0 25 -14 32 -25 14z"/>
<path d="M1644 1855 c-10 -26 8 -36 85 -48 53 -8 97 -8 172 1 86 10 159 32
159 47 0 2 -60 4 -132 3 -73 -1 -166 2 -205 6 -63 7 -74 6 -79 -9z"/>
<path d="M1450 1804 c-163 -65 -213 -89 -218 -103 -7 -20 68 -7 135 24 50 23
173 101 173 110 0 3 -1 4 -2 4 -2 -1 -41 -17 -88 -35z"/>
<path d="M2110 1823 c0 -3 18 -21 39 -40 45 -38 56 -72 42 -134 -5 -24 -17
-114 -26 -199 -24 -231 -41 -326 -81 -437 l-16 -43 -62 0 c-89 0 -186 -11
-186 -21 0 -5 46 -9 103 -9 56 0 109 -5 117 -10 11 -7 -1 -10 -41 -10 -71 0
-156 -25 -169 -50 -22 -41 -4 -132 30 -150 28 -15 80 -12 190 12 104 22 162
50 168 82 7 33 -19 73 -68 105 l-48 31 29 58 c46 91 89 298 89 428 0 33 5 45
25 58 14 9 25 22 25 29 0 7 14 18 32 25 40 15 28 31 -30 39 -37 5 -40 8 -46
42 -3 20 -6 55 -6 77 0 47 -25 86 -70 109 -32 17 -40 18 -40 8z m140 -298 c-7
-8 -16 -12 -21 -9 -13 8 -1 24 18 24 13 0 13 -3 3 -15z"/>
<path d="M1453 1730 c-7 -19 -14 -61 -15 -92 l-2 -57 -38 -6 c-40 -7 -167 -65
-202 -93 -38 -30 -209 -212 -199 -212 21 0 112 69 188 141 57 54 104 89 162
118 46 22 85 41 88 41 3 0 5 -14 5 -32 0 -44 48 -350 66 -423 9 -33 24 -75 35
-93 22 -39 23 -43 7 -37 -7 3 -97 9 -199 14 -169 7 -190 10 -230 32 -55 31
-104 95 -126 167 -22 70 -25 298 -5 351 20 56 4 48 -22 -11 -57 -129 -61 -270
-10 -378 40 -85 105 -165 152 -189 33 -17 67 -20 282 -24 135 -3 255 -9 268
-12 34 -11 27 8 -22 56 -52 53 -79 120 -111 279 -34 167 -47 261 -54 385 -6
103 -7 108 -18 75z"/>
<path d="M1686 1729 c-58 -14 -110 -47 -132 -82 -16 -27 -19 -50 -18 -142 1
-90 7 -132 33 -230 39 -149 69 -200 136 -234 42 -22 62 -26 140 -26 76 0 99 4
147 27 45 21 61 35 78 67 48 95 83 342 68 480 -8 75 -29 102 -97 127 -55 19
-294 29 -355 13z"/>
<path d="M1720 713 c-78 -13 -505 -96 -562 -109 -37 -9 -100 -33 -140 -53 -73
-37 -390 -241 -375 -241 4 0 116 56 250 124 133 68 267 131 297 140 30 8 138
25 240 36 133 15 209 29 270 50 47 15 98 31 113 34 15 4 25 11 22 16 -6 10
-66 11 -115 3z"/>
</g>
</svg>
