<?xml version="1.0" standalone="no"?>
<!DOCTYPE svg PUBLIC "-//W3C//DTD SVG 20010904//EN"
 "http://www.w3.org/TR/2001/REC-SVG-20010904/DTD/svg10.dtd">
<svg version="1.0" xmlns="http://www.w3.org/2000/svg"
 width="190.000000pt" height="180.000000pt" viewBox="0 0 190.000000 180.000000"
 preserveAspectRatio="xMidYMid meet">

<g transform="translate(0.000000,180.000000) scale(0.100000,-0.100000)"
fill="#000000" stroke="none">
<path d="M688 1638 c-51 -79 -78 -119 -216 -317 -34 -49 -62 -99 -62 -112 0
-13 33 -57 88 -118 140 -153 560 -571 574 -571 9 0 13 20 14 68 2 82 110 538
168 709 25 73 23 77 -55 113 -39 18 -91 48 -117 68 -47 36 -306 221 -329 235
-8 5 -30 -20 -65 -75z m26 -218 c-13 -124 -26 -231 -29 -238 -3 -7 -13 -11
-22 -9 -10 3 -62 15 -115 28 -54 13 -98 28 -98 34 0 11 21 45 75 120 20 28 68
97 107 155 72 107 99 142 104 137 2 -1 -8 -104 -22 -227z m246 115 c85 -64
176 -125 203 -137 31 -14 47 -27 45 -37 -3 -16 -133 -99 -157 -100 -17 -1 -21
3 -135 174 -86 129 -126 196 -126 210 0 14 26 -3 170 -110z m-176 59 c9 -23
176 -285 203 -317 13 -16 21 -32 18 -36 -9 -16 -272 -76 -283 -65 -2 1 3 65
12 141 8 76 18 173 22 216 7 74 15 94 28 61z m436 -281 c0 -5 -21 -84 -46
-178 -55 -208 -114 -462 -114 -492 0 -42 -19 -24 -26 24 -8 52 3 439 14 513 7
42 11 47 82 92 76 48 90 54 90 41z m-209 -179 c-2 -38 -6 -150 -10 -249 l-6
-180 -29 45 c-241 370 -239 367 -233 384 3 7 38 18 84 26 43 7 101 21 128 31
28 10 54 16 60 15 6 -2 8 -31 6 -72z m-417 30 c49 -13 93 -29 98 -36 5 -7 23
-38 40 -68 17 -30 62 -100 98 -155 82 -124 163 -256 158 -260 -2 -2 -99 89
-215 203 -199 195 -323 327 -323 345 0 8 12 6 144 -29z"/>
<path d="M290 1353 c1 -12 110 -76 117 -69 8 7 10 5 -55 44 -55 34 -62 36 -62
25z"/>
<path d="M390 1341 c0 -6 5 -13 10 -16 6 -3 10 1 10 9 0 9 -4 16 -10 16 -5 0
-10 -4 -10 -9z"/>
<path d="M1452 1270 c0 -14 2 -19 5 -12 2 6 2 18 0 25 -3 6 -5 1 -5 -13z"/>
<path d="M1537 1256 c-32 -19 -102 -51 -155 -72 -53 -21 -98 -39 -100 -40 -2
-1 -10 -31 -17 -66 -8 -34 -37 -162 -64 -283 -52 -223 -58 -265 -42 -265 23 0
515 510 518 538 4 23 -60 215 -72 218 -6 1 -36 -12 -68 -30z m-57 -96 c-47
-43 -89 -79 -95 -80 -5 0 -23 11 -40 24 -37 30 -33 35 70 75 44 18 91 38 105
46 54 31 42 11 -40 -65z m86 -27 c-9 -43 -20 -81 -25 -86 -12 -12 -131 2 -131
16 0 15 164 167 168 156 2 -5 -4 -43 -12 -86z m69 25 c21 -71 19 -85 -12 -96
-16 -5 -35 -13 -44 -17 -14 -5 -14 4 4 84 11 50 24 88 28 85 5 -3 15 -28 24
-56z m-293 -78 l36 -30 -91 -190 c-50 -104 -92 -188 -94 -186 -4 3 38 201 63
301 31 122 35 135 42 135 4 0 24 -14 44 -30z m88 -260 c-117 -121 -214 -220
-217 -220 -12 0 123 163 218 265 31 33 74 81 95 107 33 39 100 82 113 72 2 -2
-92 -103 -209 -224z m68 202 l43 -7 -53 -62 c-29 -33 -87 -99 -129 -145 -41
-45 -92 -104 -113 -131 -42 -52 -55 -56 -31 -11 8 16 51 104 94 197 l80 167
33 -1 c18 0 52 -4 76 -7z"/>
<path d="M355 1270 c3 -5 10 -10 16 -10 5 0 9 5 9 10 0 6 -7 10 -16 10 -8 0
-12 -4 -9 -10z"/>
<path d="M1734 1084 c-18 -15 -18 -15 11 -9 37 8 57 25 29 25 -11 0 -29 -7
-40 -16z"/>
<path d="M235 380 c-4 -6 -6 -30 -5 -53 1 -23 1 -69 0 -102 l-2 -60 -26 97
c-42 152 -52 148 -52 -21 0 -95 3 -140 10 -136 7 4 8 45 5 113 -7 123 -1 120
40 -20 16 -54 32 -98 37 -98 4 0 8 65 8 145 0 80 -2 145 -4 145 -3 0 -8 -5
-11 -10z"/>
<path d="M690 322 c0 -38 3 -103 6 -145 7 -72 8 -77 30 -77 13 0 24 5 24 10 0
6 -9 10 -20 10 -19 0 -20 7 -20 129 0 76 -4 132 -10 136 -6 4 -10 -19 -10 -63z"/>
<path d="M973 378 c-23 -29 -21 -52 9 -129 36 -91 32 -129 -12 -139 -17 -4
-21 -8 -12 -14 21 -12 49 3 62 34 13 33 9 62 -21 127 -28 62 -30 113 -4 113 8
0 15 5 15 10 0 14 -26 12 -37 -2z"/>
<path d="M1430 313 c0 -43 3 -108 7 -145 5 -63 8 -68 29 -68 13 0 24 5 24 10
0 6 -9 10 -20 10 -19 0 -20 7 -20 129 0 76 -4 132 -10 136 -6 4 -10 -22 -10
-72z"/>
<path d="M1745 370 c-21 -23 -17 -56 15 -126 13 -29 20 -60 18 -87 -3 -35 -7
-42 -28 -47 -17 -4 -21 -8 -12 -14 7 -4 23 -1 37 8 34 23 34 89 0 156 -31 61
-33 100 -5 107 11 3 20 9 20 14 0 16 -26 10 -45 -11z"/>
<path d="M386 328 c-8 -29 -20 -82 -26 -118 -6 -36 -13 -73 -16 -82 -3 -10 0
-18 6 -18 6 0 13 14 17 31 4 23 10 29 27 27 16 -2 22 -11 24 -35 2 -18 8 -33
14 -33 7 0 8 29 4 93 -10 135 -18 187 -27 187 -5 0 -15 -24 -23 -52z m28 -80
c6 -65 6 -68 -15 -68 -20 0 -21 3 -15 54 6 51 16 90 21 84 1 -2 5 -33 9 -70z"/>
<path d="M546 328 c11 -187 11 -208 -3 -208 -8 0 -11 -4 -8 -10 8 -12 52 -13
59 -1 3 5 -1 12 -10 15 -13 5 -15 24 -12 131 3 109 1 125 -13 125 -13 0 -15
-10 -13 -52z"/>
<path d="M1110 370 c0 -5 7 -10 15 -10 12 0 15 -16 16 -82 0 -46 0 -102 -1
-124 -1 -23 3 -45 9 -49 8 -4 11 34 11 122 0 87 4 133 12 141 9 9 4 12 -25 12
-20 0 -37 -4 -37 -10z"/>
<path d="M1260 366 c0 -7 7 -32 14 -54 8 -23 19 -81 23 -129 l8 -88 6 100 c3
55 9 120 14 145 9 52 -5 47 -21 -8 l-11 -37 -7 43 c-7 39 -26 60 -26 28z"/>
<path d="M1580 240 l0 -140 24 0 c14 0 28 5 31 10 3 6 -3 10 -14 10 -19 0 -21
6 -21 59 0 38 5 61 13 65 10 5 10 7 0 12 -15 7 -18 104 -3 104 6 0 10 5 10 10
0 6 -9 10 -20 10 -19 0 -20 -7 -20 -140z"/>
</g>
</svg>
