<?xml version="1.0" standalone="no"?>
<!DOCTYPE svg PUBLIC "-//W3C//DTD SVG 20010904//EN"
 "http://www.w3.org/TR/2001/REC-SVG-20010904/DTD/svg10.dtd">
<svg version="1.0" xmlns="http://www.w3.org/2000/svg"
 width="200.000000pt" height="200.000000pt" viewBox="0 0 200.000000 200.000000"
 preserveAspectRatio="xMidYMid meet">

<g transform="translate(0.000000,200.000000) scale(0.100000,-0.100000)"
fill="#000000" stroke="none">
<path d="M325 1986 c-63 -28 -117 -103 -119 -166 0 -33 10 -49 95 -146 172
-195 334 -339 449 -400 25 -13 64 -38 87 -55 40 -30 44 -31 74 -18 18 7 47 25
64 41 l32 27 160 -122 c102 -78 184 -150 227 -200 37 -42 76 -82 87 -88 47
-25 129 31 129 87 0 45 -19 64 -119 114 -63 31 -156 93 -258 171 l-159 122 19
38 c10 21 21 55 24 76 5 37 3 40 -104 137 -134 123 -257 204 -460 305 -187 93
-190 94 -228 77z m156 -70 c211 -99 366 -196 466 -290 l53 -49 -47 -30 c-52
-35 -137 -144 -154 -197 -6 -19 -12 -41 -15 -48 -9 -30 -139 62 -282 202 -147
143 -272 289 -272 316 0 52 82 150 126 150 6 0 62 -24 125 -54z m557 -375 c10
-6 5 -14 -22 -30 -19 -12 -54 -43 -77 -69 -40 -45 -99 -153 -99 -181 0 -11 -3
-11 -16 0 -41 34 43 191 139 260 42 31 54 34 75 20z m46 -79 c0 -22 -8 -52
-18 -67 l-17 -26 -40 32 c-39 31 -39 32 -22 52 24 26 75 58 88 53 6 -1 10 -21
9 -44z m61 -198 c105 -80 199 -152 210 -160 19 -14 19 -14 0 -33 -20 -20 -22
-19 -210 126 -104 80 -198 151 -208 158 -15 11 -17 17 -8 34 7 12 15 21 19 21
4 0 93 -66 197 -146z m-165 17 c0 -9 -81 -61 -97 -61 -18 0 -16 52 4 94 l16
35 39 -30 c21 -17 38 -34 38 -38z m598 -325 c4 -34 -31 -76 -63 -76 -27 0 -39
10 -104 87 l-53 62 19 24 18 25 90 -46 c78 -41 90 -51 93 -76z"/>
<path d="M1756 1128 c-11 -30 -27 -49 -52 -63 l-36 -21 36 -19 c25 -13 41 -33
54 -65 l19 -45 20 47 c14 30 32 52 52 63 17 8 31 18 31 20 0 2 -14 12 -31 20
-19 11 -38 33 -50 61 -11 24 -21 44 -23 44 -2 0 -11 -19 -20 -42z m44 -109
c-22 -24 -26 -25 -34 -10 -5 9 -16 20 -23 24 -12 7 -11 12 6 28 12 11 21 25
21 31 0 6 12 -2 28 -18 l27 -29 -25 -26z"/>
<path d="M1065 918 c-35 -19 -66 -52 -86 -91 -11 -21 -30 -42 -42 -46 -53 -20
-91 -67 -139 -168 -26 -56 -48 -107 -48 -113 0 -5 -4 -10 -10 -10 -13 0 -13
10 5 60 30 84 15 159 -36 180 -43 18 -91 -3 -146 -65 -27 -29 -64 -60 -83 -68
-74 -31 -117 -95 -277 -403 -46 -88 -83 -166 -83 -172 0 -34 26 0 76 101 79
157 178 335 212 382 16 22 43 48 60 58 l31 18 -44 -93 c-54 -115 -62 -155 -41
-196 22 -43 54 -62 101 -62 57 0 86 28 150 145 30 55 55 91 55 80 0 -10 -36
-110 -80 -221 -44 -110 -80 -207 -80 -213 0 -43 33 24 119 239 121 304 173
416 213 458 18 17 35 32 39 32 4 0 -8 -43 -27 -95 -53 -149 -42 -218 40 -245
86 -28 126 16 211 235 7 18 9 16 18 -13 13 -42 -3 -100 -105 -381 -80 -222
-86 -245 -68 -239 13 4 28 43 126 318 51 143 91 216 110 197 4 -3 -5 -34 -19
-69 -39 -100 -50 -162 -33 -203 25 -58 96 -81 156 -50 31 16 70 83 105 180 29
81 38 78 32 -10 -3 -58 -17 -118 -50 -220 -26 -77 -42 -144 -38 -148 12 -12
13 -10 66 153 53 164 65 247 43 300 -11 26 -12 44 -5 70 14 55 4 138 -21 163
-48 47 -136 11 -181 -75 -15 -26 -37 -49 -57 -59 l-34 -16 0 52 c0 29 -5 66
-11 83 -8 22 -7 46 1 86 24 119 -42 200 -125 154z m85 -33 c28 -34 24 -98 -15
-211 -63 -186 -100 -243 -155 -244 -33 0 -69 25 -81 56 -21 56 69 301 137 371
44 46 90 57 114 28z m-436 -191 c41 -40 29 -98 -49 -259 -71 -144 -100 -179
-150 -179 -45 0 -85 39 -85 82 0 37 58 166 114 256 64 102 130 141 170 100z
m742 -25 c39 -43 13 -174 -71 -356 -27 -59 -40 -76 -66 -87 -41 -17 -83 -5
-106 31 -21 32 -9 95 43 225 46 116 76 163 117 188 41 25 59 25 83 -1z"/>
<path d="M1427 601 c-3 -16 -9 -42 -13 -57 -5 -21 -3 -26 4 -19 14 13 32 94
22 100 -4 3 -10 -8 -13 -24z"/>
<path d="M1680 896 c-6 -20 -24 -43 -42 -54 l-30 -19 29 -18 c18 -11 36 -34
45 -59 l16 -41 17 43 c11 27 28 48 47 58 l30 16 -31 19 c-17 10 -37 34 -45 54
-8 19 -17 35 -20 35 -2 0 -10 -15 -16 -34z m37 -91 c-15 -14 -18 -14 -35 1
-18 15 -18 18 -3 34 15 16 17 16 35 -1 17 -16 18 -19 3 -34z"/>
</g>
</svg>
