<?xml version="1.0" standalone="no"?>
<!DOCTYPE svg PUBLIC "-//W3C//DTD SVG 20010904//EN"
 "http://www.w3.org/TR/2001/REC-SVG-20010904/DTD/svg10.dtd">
<svg version="1.0" xmlns="http://www.w3.org/2000/svg"
 width="512.000000pt" height="512.000000pt" viewBox="0 0 512.000000 512.000000"
 preserveAspectRatio="xMidYMid meet">

<g transform="translate(0.000000,512.000000) scale(0.100000,-0.100000)"
fill="#000000" stroke="none">
<path d="M582 4783 c-18 -9 -45 -32 -60 -51 l-27 -35 -3 -472 -3 -471 24 -44
c16 -31 36 -50 65 -65 l41 -20 1 -553 c0 -525 1 -555 19 -590 60 -117 187
-159 302 -101 39 19 84 67 102 108 9 18 14 194 17 580 l5 555 35 9 c46 11 98
62 110 107 6 20 10 218 10 480 0 412 -2 448 -19 486 -10 23 -34 52 -52 65 -33
24 -38 24 -284 27 -216 2 -254 0 -283 -15z m476 -570 l-3 -428 -202 -3 -203
-2 0 430 0 430 205 0 205 0 -2 -427z m-158 -848 l0 -255 -60 0 -60 0 0 255 0
255 60 0 60 0 0 -255z m0 -615 c0 -187 -1 -201 -20 -220 -24 -24 -48 -25 -78
-4 -22 15 -22 20 -22 220 l0 204 60 0 60 0 0 -200z"/>
<path d="M4593 4785 c-33 -23 -984 -1353 -1002 -1399 -11 -31 -15 -90 -15
-241 -1 -242 -2 -240 144 -383 141 -140 190 -249 190 -424 0 -287 -200 -518
-490 -563 -52 -8 -160 -24 -240 -35 -243 -33 -416 -96 -595 -215 -51 -33 -254
-212 -531 -466 -247 -227 -480 -432 -517 -457 -283 -184 -646 -154 -915 76
-74 63 -70 73 56 127 305 129 570 335 766 594 94 126 121 173 296 516 79 154
160 305 181 335 20 30 97 126 170 214 219 260 275 331 313 398 19 35 178 437
352 893 387 1015 357 933 343 968 -21 51 -90 65 -126 25 -11 -13 -163 -399
-337 -858 -174 -459 -332 -866 -351 -905 -42 -87 -122 -192 -305 -405 -78 -91
-162 -196 -187 -233 -25 -38 -115 -204 -200 -370 -163 -318 -240 -444 -346
-568 -170 -199 -433 -385 -673 -475 -37 -14 -80 -34 -95 -45 -56 -39 -85 -146
-59 -214 14 -37 104 -130 177 -181 84 -61 213 -120 319 -146 124 -30 304 -30
429 0 108 27 269 104 345 165 30 25 231 206 446 403 471 434 481 442 583 503
169 102 282 137 572 175 221 30 277 44 373 92 186 95 314 248 377 454 34 108
34 293 1 400 -48 152 -100 233 -225 352 l-82 77 -4 82 c-2 45 0 128 4 185 l7
105 484 674 c528 735 517 717 458 764 -32 25 -61 27 -91 6z"/>
<path d="M799 2136 c-33 -33 -139 -227 -149 -273 -14 -61 6 -129 53 -180 130
-142 357 -50 357 145 0 53 -5 68 -65 172 -36 62 -75 124 -87 137 -29 31 -78
31 -109 -1z m81 -256 c26 -51 26 -86 0 -100 -40 -21 -88 16 -73 57 9 23 44 83
49 83 2 0 13 -18 24 -40z"/>
</g>
</svg>
