<?xml version="1.0" standalone="no"?>
<!DOCTYPE svg PUBLIC "-//W3C//DTD SVG 20010904//EN"
 "http://www.w3.org/TR/2001/REC-SVG-20010904/DTD/svg10.dtd">
<svg version="1.0" xmlns="http://www.w3.org/2000/svg"
 width="200.000000pt" height="200.000000pt" viewBox="0 0 200.000000 200.000000"
 preserveAspectRatio="xMidYMid meet">

<g transform="translate(0.000000,200.000000) scale(0.100000,-0.100000)"
fill="#f99397" stroke="none">
<path d="M432 1958 c-20 -25 -43 -135 -52 -250 -8 -117 -9 -118 -60 -208 -52
-89 -52 -91 -61 -202 -11 -155 -60 -341 -98 -377 -15 -14 -33 -42 -40 -62 -13
-40 -52 -322 -45 -328 14 -14 26 30 40 140 18 148 28 189 53 221 29 35 85 28
263 -33 137 -47 162 -53 238 -53 47 0 96 3 110 6 25 7 25 6 22 -47 -3 -36 2
-65 12 -86 9 -18 16 -52 16 -76 0 -65 23 -103 62 -103 25 0 41 10 80 52 26 28
50 49 53 47 2 -3 -1 -31 -7 -62 -9 -41 -9 -65 -2 -85 6 -15 7 -37 3 -47 -11
-29 -11 -99 1 -129 21 -57 98 -37 152 39 22 31 40 45 64 49 19 4 45 20 63 41
17 19 39 35 50 35 11 0 36 13 54 30 19 16 44 30 54 30 36 0 87 44 153 132 65
86 65 86 119 94 90 11 99 -2 142 -209 46 -225 38 -286 -52 -403 -42 -55 -46
-64 -26 -64 15 1 76 79 108 140 33 61 31 171 -5 345 -31 149 -50 195 -87 212
-25 12 -26 14 -17 70 13 77 5 180 -17 226 -32 69 -123 99 -182 60 -26 -17 -27
-17 -19 2 16 38 19 114 6 145 -27 66 -138 129 -199 113 -22 -6 -23 -4 -16 35
9 58 -9 105 -56 146 -69 59 -164 71 -205 25 -9 -10 -20 -19 -24 -19 -4 0 -10
31 -12 69 -7 89 -29 129 -91 160 -57 28 -97 24 -154 -18 -48 -35 -101 -132
-169 -313 -26 -70 -49 -126 -52 -124 -2 3 9 47 24 98 57 194 23 345 -97 425
-34 22 -39 31 -39 62 0 52 -32 79 -58 49z m28 -103 c-12 -89 -29 -152 -44
-164 -20 -17 2 156 30 238 3 9 8 11 14 5 6 -6 6 -36 0 -79z m82 -52 c81 -74
107 -196 69 -333 -12 -41 -29 -110 -38 -154 -17 -80 -15 -129 14 -420 l6 -58
-34 7 c-19 4 -73 23 -120 41 -48 18 -117 39 -153 46 -36 7 -66 16 -66 21 0 4
14 60 30 124 19 72 30 140 30 182 0 90 19 156 68 238 22 37 44 82 48 98 4 17
17 44 30 60 23 32 54 123 54 162 0 32 13 29 62 -14z m454 -64 c37 -35 48 -84
48 -204 -1 -102 -4 -119 -41 -226 -49 -138 -76 -195 -103 -209 -24 -13 -24
-16 0 55 26 76 26 118 -2 149 -31 35 -75 42 -114 17 -25 -15 -37 -34 -54 -88
-27 -82 -37 -95 -46 -59 -4 19 7 72 35 171 40 135 49 210 26 210 -5 0 -11 -18
-12 -40 -1 -22 -20 -100 -42 -174 -23 -74 -41 -139 -41 -146 0 -6 9 -28 19
-48 16 -31 17 -44 9 -74 -19 -70 12 -153 58 -153 39 0 73 28 107 88 17 31 33
50 35 44 2 -7 -11 -55 -28 -107 -36 -109 -37 -109 -160 -110 l-75 0 -9 115
c-19 261 -19 263 60 460 108 268 140 322 204 349 37 16 98 6 126 -20z m250
-185 c54 -26 94 -78 94 -123 0 -55 -262 -760 -291 -784 -12 -9 -23 -16 -25
-14 -2 1 10 45 27 96 31 98 31 121 -3 158 -28 30 -70 38 -106 19 -30 -16 -46
-48 -82 -161 -17 -55 -27 -62 -35 -27 -11 50 70 317 119 389 35 53 104 237
121 326 23 121 88 165 181 121z m247 -244 c18 -12 41 -34 51 -48 37 -49 27
-93 -107 -452 -68 -185 -132 -350 -141 -368 -16 -31 -60 -61 -72 -50 -3 3 9
36 25 73 39 86 40 118 2 156 -60 59 -118 31 -176 -86 l-35 -70 5 54 c3 34 18
82 39 125 28 56 126 315 248 647 5 15 19 31 31 38 31 15 93 7 130 -19z m-610
-31 l19 -27 -36 -108 c-41 -123 -63 -165 -102 -190 -26 -18 -27 -17 -45 5 -28
34 -24 87 16 211 38 115 59 143 104 138 13 -2 33 -15 44 -29z m837 -208 c40
-28 52 -82 47 -199 -4 -107 -10 -122 -50 -122 -17 0 -17 2 2 26 24 30 27 44 9
44 -7 0 -44 -44 -83 -98 -81 -113 -152 -192 -171 -192 -19 0 -19 -1 22 71 50
89 53 112 18 147 -16 16 -36 31 -43 33 -12 4 -8 23 18 95 47 129 92 198 141
217 22 8 61 -1 90 -22z m-690 -201 c11 -11 20 -28 20 -37 0 -37 -73 -235 -97
-264 -61 -72 -99 -57 -96 39 1 66 63 250 90 270 25 18 60 15 83 -8z m464 -136
c24 -24 20 -45 -28 -130 -45 -80 -96 -139 -114 -133 -6 2 12 66 40 142 53 143
65 158 102 121z m-262 -131 c28 -25 22 -64 -30 -175 -49 -104 -94 -158 -132
-158 -26 0 -32 13 -32 68 1 35 14 77 48 152 25 58 53 111 62 118 22 17 62 15
84 -5z"/>
<path d="M880 1491 c0 -5 10 -11 23 -14 12 -2 31 -8 42 -12 17 -6 17 -4 -4 14
-23 21 -61 29 -61 12z"/>
<path d="M834 1449 c-4 -7 3 -10 17 -9 44 4 58 0 79 -22 11 -12 23 -19 26 -15
3 3 -5 17 -19 31 -27 27 -89 36 -103 15z"/>
<path d="M716 489 c-3 -8 -10 -40 -16 -72 -11 -56 -14 -59 -56 -77 -24 -11
-44 -24 -44 -30 0 -6 20 -20 44 -31 43 -18 45 -22 56 -77 6 -31 13 -63 16 -71
8 -26 26 4 38 66 11 55 14 59 59 83 26 14 47 27 47 30 0 3 -21 16 -47 30 -45
24 -48 28 -59 83 -12 62 -30 92 -38 66z m24 -130 c0 -9 14 -22 30 -29 38 -16
38 -24 1 -40 -20 -8 -31 -21 -36 -43 l-7 -32 -10 34 c-6 23 -18 36 -39 44 -37
14 -36 20 1 34 22 8 32 20 36 43 5 22 9 28 15 18 5 -7 9 -20 9 -29z"/>
<path d="M475 278 c-2 -7 -8 -28 -13 -47 -6 -27 -15 -37 -42 -46 -47 -16 -48
-30 -2 -48 34 -13 40 -21 48 -58 13 -59 31 -61 45 -4 10 40 17 48 51 62 46 18
45 32 -3 48 -29 10 -36 19 -47 58 -13 46 -28 60 -37 35z m51 -109 c7 -2 -1
-16 -17 -32 -20 -20 -29 -24 -29 -13 0 8 -10 21 -22 27 l-22 12 22 8 c12 5 22
16 22 26 0 16 2 16 18 -3 9 -12 22 -23 28 -25z"/>
<path d="M1810 261 c0 -43 -24 -93 -75 -155 -56 -69 -60 -98 -5 -36 69 79 127
220 90 220 -5 0 -10 -13 -10 -29z"/>
</g>
</svg>
