<?xml version="1.0" standalone="no"?>
<!DOCTYPE svg PUBLIC "-//W3C//DTD SVG 20010904//EN"
 "http://www.w3.org/TR/2001/REC-SVG-20010904/DTD/svg10.dtd">
<svg version="1.0" xmlns="http://www.w3.org/2000/svg"
 width="126.000000pt" height="127.000000pt" viewBox="0 0 126.000000 127.000000"
 preserveAspectRatio="xMidYMid meet">

<g transform="translate(0.000000,127.000000) scale(0.100000,-0.100000)"
fill="#000000" stroke="none">
<path d="M651 1168 c-18 -51 -34 -136 -51 -281 l-18 -152 -2 185 c-2 214 -6
235 -40 235 -37 0 -51 -69 -59 -285 l-6 -185 -14 103 c-20 151 -33 196 -58
200 -17 3 -22 -5 -32 -42 -15 -59 -14 -106 4 -261 24 -205 44 -325 65 -392 10
-34 22 -85 26 -113 4 -27 11 -50 16 -50 13 0 -1 95 -28 181 -13 42 -31 134
-39 205 -8 71 -20 156 -25 189 -5 33 -10 92 -10 131 0 70 0 71 24 67 22 -4 25
-12 31 -67 15 -142 32 -202 52 -182 5 4 11 94 14 199 3 106 7 193 7 195 1 1
16 2 33 2 l31 0 -6 -172 c-7 -171 -1 -217 24 -192 7 7 49 336 50 390 0 0 14 1
31 1 l32 0 -8 -96 c-4 -53 -10 -133 -14 -178 -7 -94 -2 -126 18 -114 8 5 20
57 31 135 25 174 29 189 47 182 8 -3 21 -6 28 -6 10 0 13 -10 10 -32 -35 -277
-37 -305 -26 -363 6 -32 15 -63 20 -68 5 -5 23 17 41 50 48 87 113 149 94 91
-4 -13 -7 -30 -6 -38 0 -8 -6 -35 -13 -60 -7 -25 -18 -74 -25 -110 -14 -76
-46 -144 -95 -204 -39 -48 -70 -125 -57 -138 6 -6 14 9 20 35 7 25 29 66 52
93 56 68 90 146 106 243 10 63 23 100 49 144 42 70 40 92 -7 82 -48 -11 -79
-37 -113 -94 -16 -28 -33 -51 -37 -51 -17 0 -19 100 -4 217 9 71 16 167 16
215 0 75 -3 89 -19 97 -14 8 -22 7 -30 -3 -21 -25 -42 -102 -56 -202 -8 -56
-19 -112 -25 -125 l-11 -24 6 25 c15 78 27 281 19 340 -8 57 -12 65 -31 68
-17 2 -25 -3 -32 -20z m39 -32 c0 -38 -16 -57 -26 -32 -8 21 3 66 16 66 6 0
10 -15 10 -34z m-140 -32 c0 -24 -4 -34 -12 -31 -7 2 -13 9 -12 15 1 7 2 21 3
32 2 35 21 21 21 -16z m260 -28 c0 -31 -10 -56 -21 -56 -10 0 -12 63 -2 73 13
14 23 6 23 -17z m-400 -132 c0 -14 -4 -23 -10 -19 -5 3 -10 15 -10 26 0 10 5
19 10 19 6 0 10 -12 10 -26z m571 -261 c-12 -20 -14 -14 -5 12 4 9 9 14 11 11
3 -2 0 -13 -6 -23z"/>
</g>
</svg>
