<?xml version="1.0" standalone="no"?>
<!DOCTYPE svg PUBLIC "-//W3C//DTD SVG 20010904//EN"
 "http://www.w3.org/TR/2001/REC-SVG-20010904/DTD/svg10.dtd">
<svg version="1.0" xmlns="http://www.w3.org/2000/svg"
 width="122.000000pt" height="124.000000pt" viewBox="0 0 122.000000 124.000000"
 preserveAspectRatio="xMidYMid meet">

<g transform="translate(0.000000,124.000000) scale(0.100000,-0.100000)"
fill="#000000" stroke="none">
<path d="M784 1136 l-37 -65 -48 6 c-26 3 -81 2 -123 -2 -94 -8 -125 -30 -130
-90 -2 -23 -16 -61 -34 -88 -17 -27 -36 -71 -41 -98 -14 -63 -15 -685 -1 -694
5 -3 10 129 12 352 l3 358 24 43 c14 23 28 42 31 42 4 0 10 -77 14 -170 7
-198 18 -237 78 -281 77 -55 176 -48 240 18 51 52 58 78 58 203 0 121 9 160
39 160 35 0 41 -56 41 -403 0 -222 3 -326 10 -322 13 8 12 592 -1 682 -8 55
-6 67 11 95 30 50 25 87 -30 196 -68 137 -70 138 -116 58z m107 -80 c47 -96
49 -134 12 -176 -72 -79 -198 -18 -178 87 5 29 52 129 86 181 13 21 15 21 28
5 7 -10 31 -54 52 -97z m-161 -7 c0 -6 -8 -33 -17 -60 -16 -45 -16 -50 1 -86
18 -39 46 -64 81 -74 19 -5 20 -12 17 -138 -2 -108 -6 -140 -22 -171 -61 -120
-234 -119 -296 3 -20 37 -37 457 -20 495 5 12 23 26 40 31 47 14 216 13 216 0z"/>
</g>
</svg>
