<?xml version="1.0" standalone="no"?>
<!DOCTYPE svg PUBLIC "-//W3C//DTD SVG 20010904//EN"
 "http://www.w3.org/TR/2001/REC-SVG-20010904/DTD/svg10.dtd">
<svg version="1.0" xmlns="http://www.w3.org/2000/svg"
 width="139.000000pt" height="141.000000pt" viewBox="0 0 139.000000 141.000000"
 preserveAspectRatio="xMidYMid meet">

<g transform="translate(0.000000,141.000000) scale(0.100000,-0.100000)"
fill="#000000" stroke="none">
<path d="M550 1091 c0 -66 -3 -127 -6 -136 -4 -9 -38 -37 -76 -61 -53 -34 -74
-54 -88 -87 -39 -84 -19 -128 93 -211 99 -73 123 -104 147 -189 30 -105 69
-182 104 -209 27 -20 45 -23 136 -26 96 -3 108 -2 133 18 47 37 34 61 -46 87
-38 12 -75 27 -82 33 -14 12 -18 159 -17 645 0 153 -3 249 -8 233 -10 -33 -14
-376 -9 -669 4 -220 7 -231 56 -244 15 -3 38 -15 51 -26 14 -10 31 -19 38 -19
19 0 18 -26 -2 -34 -9 -3 -56 -6 -105 -6 -143 0 -165 19 -223 195 -20 60 -43
120 -52 133 -8 13 -55 52 -103 87 -89 65 -111 94 -111 144 0 37 37 91 80 116
18 11 51 36 72 56 l38 37 0 126 c0 77 -4 126 -10 126 -6 0 -10 -46 -10 -119z"/>
</g>
</svg>
