<?xml version="1.0" standalone="no"?>
<!DOCTYPE svg PUBLIC "-//W3C//DTD SVG 20010904//EN"
 "http://www.w3.org/TR/2001/REC-SVG-20010904/DTD/svg10.dtd">
<svg version="1.0" xmlns="http://www.w3.org/2000/svg"
 width="1200.000000pt" height="1267.000000pt" viewBox="0 0 1200.000000 1267.000000"
 preserveAspectRatio="xMidYMid meet">

<g transform="translate(0.000000,1267.000000) scale(0.100000,-0.100000)"
fill="#fff" stroke="none">
<path d="M5575 12663 c-657 -17 -1370 -98 -1935 -219 -598 -129 -1076 -292
-1525 -519 -400 -202 -731 -439 -946 -676 -627 -696 -968 -1569 -1104 -2829
-30 -282 -45 -561 -57 -1067 -23 -985 25 -1710 153 -2333 162 -782 434 -1399
845 -1915 113 -141 368 -396 509 -509 357 -285 764 -499 1245 -656 l145 -47 5
-724 c6 -804 5 -793 75 -944 41 -90 83 -141 152 -188 l55 -37 179 0 c170 0
182 1 227 24 111 56 244 181 552 520 80 88 201 221 269 295 159 175 378 424
494 563 l92 110 85 -6 c600 -45 1262 -46 1880 -1 655 48 1330 153 1785 280 88
24 244 67 347 94 937 254 1630 727 2106 1438 390 583 608 1239 711 2143 78
683 81 732 81 1748 0 973 -2 1015 -60 1440 -162 1170 -541 2072 -1110 2642
-761 762 -2215 1255 -3980 1349 -234 13 -950 32 -1081 29 -52 -1 -139 -3 -194
-5z m1070 -893 c1170 -54 2127 -268 2875 -641 308 -154 512 -301 677 -489 448
-508 734 -1244 868 -2234 60 -449 79 -811 72 -1391 -7 -553 -44 -1080 -108
-1545 -116 -833 -418 -1503 -886 -1967 -130 -128 -232 -210 -393 -318 -301
-201 -605 -325 -1050 -430 -102 -24 -237 -57 -300 -73 -475 -123 -1201 -223
-1905 -263 -231 -13 -865 -17 -1100 -6 l-160 7 -197 -238 c-690 -834 -1420
-1668 -1533 -1754 -27 -20 -71 -42 -98 -49 -44 -10 -52 -9 -75 8 -58 42 -57
37 -57 548 0 259 2 766 4 1129 l3 658 -158 53 c-558 184 -991 464 -1328 856
-476 555 -741 1281 -831 2274 -47 527 -47 1520 0 2120 86 1086 347 1873 816
2457 231 288 498 493 918 702 643 321 1525 527 2516 586 99 6 207 12 240 14
106 7 962 -4 1190 -14z"/>
<path d="M5842 10361 c-46 -30 -72 -77 -72 -134 0 -58 19 -98 62 -128 29 -21
48 -24 198 -31 537 -23 941 -125 1350 -339 415 -218 798 -562 1053 -947 143
-216 281 -515 357 -775 84 -290 140 -686 140 -987 0 -92 3 -113 23 -150 66
-125 250 -101 287 38 13 50 -1 375 -25 573 -95 778 -382 1407 -870 1908 -435
446 -922 733 -1498 881 -279 71 -475 99 -762 106 -200 5 -212 5 -243 -15z"/>
<path d="M3715 10018 c-87 -11 -167 -44 -264 -108 -155 -102 -274 -201 -427
-354 -168 -169 -252 -283 -305 -420 -28 -70 -33 -97 -37 -196 -7 -182 36 -349
175 -676 74 -176 320 -670 457 -919 291 -527 649 -1046 972 -1410 129 -145
450 -476 562 -579 122 -111 397 -332 567 -456 486 -352 887 -586 1580 -921
447 -216 746 -319 930 -319 106 0 298 73 433 165 134 91 346 299 465 458 211
282 261 482 167 674 -40 81 -78 119 -309 303 -407 325 -656 501 -901 637 -202
113 -373 130 -538 53 -97 -45 -130 -77 -275 -263 -145 -186 -187 -229 -251
-257 -108 -46 -197 -50 -321 -14 -666 195 -1248 658 -1637 1304 -173 287 -338
675 -338 795 0 99 42 219 98 278 15 16 102 88 195 159 188 147 231 198 270
322 31 101 31 254 -2 349 -22 65 -267 456 -429 685 -130 185 -476 605 -525
638 -94 64 -194 87 -312 72z"/>
<path d="M6170 9548 c-48 -25 -90 -89 -90 -138 0 -14 10 -46 23 -70 26 -53 89
-90 150 -90 105 0 411 -59 573 -111 531 -169 939 -549 1143 -1062 81 -204 131
-485 131 -741 0 -82 4 -105 21 -136 42 -75 137 -101 213 -57 66 37 76 69 76
237 0 522 -174 1015 -492 1395 -351 420 -827 674 -1434 764 -229 34 -263 35
-314 9z"/>
<path d="M6379 8678 c-20 -11 -47 -39 -59 -60 -40 -72 -11 -176 58 -212 15 -8
75 -19 135 -25 468 -51 697 -288 746 -775 7 -70 17 -120 29 -140 61 -104 214
-102 270 5 21 40 23 52 17 134 -30 409 -189 720 -463 902 -140 93 -289 147
-497 178 -138 21 -192 19 -236 -7z"/>
</g>
</svg>
